# xmcd
#
# Track frame offsets:
#	150
#	5209
#	37351
#	77367
#	92693
#	167827
#	215719
#	236753
#	291647
#
# Disc length: 4521 seconds
#
# Revision: 0
# Processed by: cddbd v1.5.2PL0 Copyright (c) Steve Scherf et al.
# Submitted via: EasyCDDAExtractor 16.0.6.1
#
DISCID=8511a709
DTITLE=Allman Brothers Band -  2005-08-16 - Molson Amphitheatre,Toronto - Disc
DTITLE=1
DYEAR=2005
DGENRE=
TTITLE0=intro warmup
TTITLE1=One Way Out
TTITLE2=Ain't Wastin'Time No More
TTITLE3=Midnight Rider
TTITLE4=In Memory of Elizabeth Reed
TTITLE5=You Don't Love Me
TTITLE6=Don't Keep Me Wonderin'
TTITLE7=Stormy Monday
TTITLE8=Dimples
EXTD=
EXTT0=
EXTT1=
EXTT2=
EXTT3=
EXTT4=
EXTT5=
EXTT6=
EXTT7=
EXTT8=
PLAYORDER=
